<svg version="1.1" xmlns="http://www.w3.org/2000/svg" xmlns:xlink="http://www.w3.org/1999/xlink" width="163.5" height="85.5" viewBox="0,0,163.5,85.5"><g transform="translate(-158.25,-137.25)"><g data-paper-data="{&quot;isPaintingLayer&quot;:true}" fill="#ff0000" fill-rule="nonzero" stroke="#000000" stroke-width="5.5" stroke-linecap="butt" stroke-linejoin="miter" stroke-miterlimit="10" stroke-dasharray="" stroke-dashoffset="0" style="mix-blend-mode: normal"><path d="M161,140h158v80h-73.66461c2.11179,-0.81004 4.21155,-1.61135 6.31911,-2.03286c1.23877,-0.22249 2.39836,-0.67313 3.43372,-1.30686c4.16361,-1.30113 9.96567,-2.76874 12.42203,-6.69511c0.57141,-0.91337 -0.12168,-1.974 0.23922,-2.8744c1.29903,-3.24097 1.79123,-5.77891 -0.48922,-8.80594c-2.39102,-3.17379 -6.57342,-4.59696 -9.26293,-7.74672c-5.90934,-6.92061 -2.75107,-16.03069 -15.68318,-14.96039c-1.72655,0.14289 -3.41197,0.25358 -5.10846,0.78542c-3.83604,1.20257 -8.17532,3.08865 -11.49598,5.27145c-5.02415,3.30257 -10.97911,7.06488 -15.22835,11.51633c-0.79107,0.82871 -1.46301,1.65698 -2.02296,2.48022c0.16732,-4.49681 -0.01416,-9.00541 -0.08341,-13.50613c-0.27048,-17.58088 -21.02076,-20.99414 -35.08045,-18.96546c-4.66312,0.67284 -9.64641,2.23646 -12.29455,6.31115zM286.21149,144.8629c-11.41412,-5.70706 -29.35777,-5.61821 -39.98814,-2.96062c-12.02233,3.00558 -8.95669,18.53307 0.75669,23.04765c9.59433,4.45925 22.55762,3.07278 32.09271,-1.41878c1.31199,0.67195 2.79193,1.06251 4.3602,1.09205c0.26368,0.0499 0.51644,0.0751 0.75106,0.06411c0.51415,-0.02407 1.00571,-0.11726 1.47617,-0.26955c4.54694,-0.94009 7.96481,-4.96728 7.96481,-9.79276c1.15855,-2.31737 -0.19804,-4.43209 -2.10995,-6.1446c-1.24448,-1.59571 -2.96244,-2.80408 -4.94273,-3.41398c-0.10119,-0.06243 -0.19644,-0.12187 -0.28505,-0.17825z"/><path d="M161,220v-40.74957c2.21431,3.28738 6.00609,6.25658 9.31838,5.42851c6.19961,-1.5499 10.95796,-2.43672 17.82717,-1.45201c4.66892,0.66929 -0.07346,9.44116 0.22946,14.14807c0,0.83737 0.10292,1.6507 0.29681,2.42804c0.23959,1.18413 0.6029,2.03166 1.11512,2.69794c1.74626,2.9194 4.9389,4.87402 8.58807,4.87402c3.23684,0 6.11448,-1.53786 7.94215,-3.92278c0.66562,4.85374 5.13565,8.83892 11.39557,10.65962c1.91465,0.55687 8.61167,1.28908 9.00965,1.98575c0.61758,1.08108 1.94427,2.6142 3.487,3.90242z"/><path d="M230.46719,179c-1.30934,0.61964 -2.57842,1.29112 -3.75039,2h-18.38809c-0.0466,-0.68955 -0.12604,-1.35602 -0.2365,-2z"/><path d="M162,181l0,-0.41764c0.11739,0.14093 0.23739,0.28025 0.35982,0.41764z"/><path d="M318,179v2l-64.76084,0c-0.3178,-0.71463 -0.66367,-1.38706 -1.07281,-2z"/></g></g></svg>